<svg xmlns="http://www.w3.org/2000/svg" viewBox="0 0 445.000000 445.000000">

  <g transform="translate(0.000000,441.000000) scale(0.100000,-0.100000)">
    <path d="M2115 4067 c-54 -14 -136 -98 -154 -157 -7 -25 -19 -106 -25 -182 -8
-84 -18 -143 -26 -153 -8 -9 -37 -28 -64 -42 -74 -37 -147 -89 -308 -217 -168
-133 -212 -162 -272 -178 -51 -13 -113 1 -142 34 -16 17 -15 23 24 101 56 112
115 200 160 235 20 16 82 45 137 65 154 54 244 92 310 129 47 27 60 39 60 58
0 45 -153 106 -355 141 -184 32 -327 20 -410 -35 -20 -13 -84 -67 -143 -120
l-107 -97 0 -322 c0 -348 9 -508 35 -608 20 -80 137 -322 240 -499 239 -413
436 -661 751 -950 93 -85 232 -216 309 -291 95 -93 150 -140 170 -144 53 -11
74 -24 89 -52 25 -49 84 -85 211 -128 44 -15 118 -47 165 -71 126 -64 212 -85
365 -91 122 -5 135 -4 209 21 96 32 144 65 223 150 120 127 185 306 187 511 2
173 -26 234 -129 281 -72 34 -110 31 -150 -9 -38 -38 -51 -79 -60 -192 -12
-148 -52 -233 -138 -289 -78 -52 -152 -70 -261 -63 -104 5 -286 52 -286 73 0
18 98 132 167 193 31 28 73 56 92 62 53 17 110 60 212 157 119 112 200 220
253 335 24 51 52 100 63 109 42 38 112 59 228 68 133 11 168 23 212 73 44 51
63 142 63 309 0 185 -23 264 -95 327 -32 28 -42 31 -98 31 -139 0 -271 38
-329 94 -19 18 -59 75 -89 127 -42 73 -81 121 -179 220 -127 128 -242 216
-527 404 l-122 80 -3 202 c-3 197 -4 202 -27 227 -62 65 -309 107 -436 73z
m787 -1215 c87 -65 87 -67 21 -159 -31 -43 -69 -96 -84 -118 -48 -68 -61 -145
-57 -334 3 -153 5 -170 29 -221 14 -30 46 -80 70 -110 78 -95 91 -119 85 -145
-9 -37 -160 -191 -212 -215 l-45 -22 -114 77 c-63 43 -143 89 -177 103 -57 24
-75 27 -193 27 -94 -1 -151 -6 -207 -19 -64 -16 -84 -17 -116 -8 -53 16 -91
48 -109 91 -17 39 -32 268 -33 486 0 149 -17 231 -58 285 -14 19 -63 73 -108
120 l-82 85 77 57 c100 76 222 137 287 145 50 5 51 5 62 -25 5 -16 25 -41 44
-55 49 -37 156 -86 221 -99 51 -11 62 -10 139 16 75 25 330 146 352 166 9 9
107 -52 208 -128z" />
    <path d="M462 2555 c-79 -211 -61 -482 42 -601 l34 -39 94 1 c116 0 182 27
210 84 23 44 23 146 3 278 -21 130 -40 176 -90 220 -39 34 -230 142 -251 142
-5 0 -24 -38 -42 -85z" />
    <path d="M2068 699 c-35 -18 -88 -81 -88 -104 0 -13 64 -75 102 -98 46 -29 84
-22 154 29 82 58 84 78 13 130 -46 34 -109 63 -134 63 -5 0 -27 -9 -47 -20z" />
  </g>
</svg>