<svg xmlns="http://www.w3.org/2000/svg" viewBox="0 0 1000 1000">
  <g transform="translate(0.000000,1000.000000) scale(0.100000,-0.100000)">
    <path d="M4745 9984 c-329 -61 -600 -206 -831 -447 -198 -205 -327 -450 -390
-737 -15 -68 -19 -127 -19 -300 0 -173 4 -232 19 -300 66 -304 196 -540 416
-760 220 -220 456 -350 760 -416 68 -15 127 -19 300 -19 173 0 232 4 300 19
304 66 540 196 760 416 220 220 350 456 416 760 15 68 19 127 19 300 0 173 -4
232 -19 300 -66 304 -196 540 -416 760 -216 216 -441 342 -739 412 -116 27
-457 35 -576 12z" />
    <path d="M1645 8184 c-329 -61 -600 -206 -831 -447 -198 -205 -327 -450 -390
-737 -15 -68 -19 -127 -19 -300 0 -173 4 -232 19 -300 66 -304 196 -540 416
-760 220 -220 456 -350 760 -416 68 -15 127 -19 300 -19 173 0 232 4 300 19
304 66 540 196 760 416 220 220 350 456 416 760 15 68 19 127 19 300 0 173 -4
232 -19 300 -66 304 -196 540 -416 760 -216 216 -441 342 -739 412 -116 27
-457 35 -576 12z" />
    <path d="M7845 8184 c-329 -61 -600 -206 -831 -447 -198 -205 -327 -450 -390
-737 -15 -68 -19 -127 -19 -300 0 -173 4 -232 19 -300 66 -304 196 -540 416
-760 220 -220 456 -350 760 -416 68 -15 127 -19 300 -19 173 0 232 4 300 19
304 66 540 196 760 416 220 220 350 456 416 760 15 68 19 127 19 300 0 173 -4
232 -19 300 -66 304 -196 540 -416 760 -216 216 -441 342 -739 412 -116 27
-457 35 -576 12z" />
    <path d="M1645 4784 c-329 -61 -600 -206 -831 -447 -198 -205 -327 -450 -390
-737 -15 -68 -19 -127 -19 -300 0 -173 4 -232 19 -300 66 -304 196 -540 416
-760 220 -220 456 -350 760 -416 68 -15 127 -19 300 -19 173 0 232 4 300 19
304 66 540 196 760 416 220 220 350 456 416 760 15 68 19 127 19 300 0 173 -4
232 -19 300 -66 304 -196 540 -416 760 -216 216 -441 342 -739 412 -116 27
-457 35 -576 12z" />
    <path d="M7845 4784 c-329 -61 -600 -206 -831 -447 -198 -205 -327 -450 -390
-737 -15 -68 -19 -127 -19 -300 0 -173 4 -232 19 -300 66 -304 196 -540 416
-760 220 -220 456 -350 760 -416 68 -15 127 -19 300 -19 173 0 232 4 300 19
304 66 540 196 760 416 220 220 350 456 416 760 15 68 19 127 19 300 0 173 -4
232 -19 300 -66 304 -196 540 -416 760 -216 216 -441 342 -739 412 -116 27
-457 35 -576 12z" />
    <path d="M4745 2984 c-329 -61 -600 -206 -831 -447 -198 -205 -327 -450 -390
-737 -15 -68 -19 -127 -19 -300 0 -173 4 -232 19 -300 66 -304 196 -540 416
-760 220 -220 456 -350 760 -416 68 -15 127 -19 300 -19 173 0 232 4 300 19
304 66 540 196 760 416 220 220 350 456 416 760 15 68 19 127 19 300 0 173 -4
232 -19 300 -66 304 -196 540 -416 760 -216 216 -441 342 -739 412 -116 27
-457 35 -576 12z" />
  </g>
</svg>